<svg width="24" height="26" viewBox="0 0 24 26" fill="none" xmlns="http://www.w3.org/2000/svg">
<path d="M16.7502 4.58119V2.96269C16.7502 2.53732 16.4102 2.18457 16.0002 2.18457C15.5902 2.18457 15.2502 2.53732 15.2502 2.96269V4.51894H8.75022V2.96269C8.75022 2.53732 8.41022 2.18457 8.00022 2.18457C7.59022 2.18457 7.25022 2.53732 7.25022 2.96269V4.58119C4.55022 4.84057 3.24023 6.51094 3.04023 8.99056C3.02023 9.29144 3.26023 9.54044 3.54023 9.54044H20.4602C20.7502 9.54044 20.9902 9.28106 20.9602 8.99056C20.7602 6.51094 19.4502 4.84057 16.7502 4.58119Z" fill="white"/>
<path opacity="0.4" d="M20 11.0967C20.55 11.0967 21 11.5636 21 12.1342V18.5252C21 21.6377 19.5 23.7127 16 23.7127H8C4.5 23.7127 3 21.6377 3 18.5252V12.1342C3 11.5636 3.45 11.0967 4 11.0967H20Z" fill="white"/>
<path d="M14.8399 16.4395L14.3399 16.9687H14.3299L11.2999 20.1123C11.1699 20.2471 10.8999 20.3924 10.7099 20.4132L9.35993 20.6206C8.86993 20.6933 8.52995 20.3302 8.59995 19.8322L8.78996 18.4211C8.81996 18.224 8.94993 17.9543 9.07993 17.809L12.1199 14.6654L12.6199 14.1363C12.9499 13.7939 13.3199 13.5449 13.7199 13.5449C14.0599 13.5449 14.4299 13.7109 14.8399 14.1363C15.7399 15.07 15.4499 15.8066 14.8399 16.4395Z" fill="white"/>
</svg>
