<svg width="17" height="18" viewBox="0 0 17 18" fill="none" xmlns="http://www.w3.org/2000/svg">
<path d="M9.72547 2.65336L10.9721 5.14669C11.1421 5.49378 11.5955 5.82669 11.978 5.89044L14.2376 6.26586C15.6826 6.50669 16.0226 7.55503 14.9813 8.58919L13.2246 10.3459C12.9271 10.6434 12.7642 11.2171 12.8563 11.6279L13.3592 13.8025C13.7559 15.5238 12.8421 16.1896 11.3192 15.29L9.20131 14.0363C8.81881 13.8096 8.18839 13.8096 7.79881 14.0363L5.68089 15.29C4.16506 16.1896 3.24422 15.5167 3.64089 13.8025L4.14381 11.6279C4.23589 11.2171 4.07297 10.6434 3.77547 10.3459L2.01881 8.58919C0.984641 7.55503 1.31756 6.50669 2.76256 6.26586L5.02214 5.89044C5.39756 5.82669 5.85089 5.49378 6.02089 5.14669L7.26756 2.65336C7.94756 1.30044 9.05256 1.30044 9.72547 2.65336Z" fill="#FFC300" stroke="#FFC300" stroke-width="1.5" stroke-linecap="round" stroke-linejoin="round"/>
</svg>
