<svg width="39" height="40" viewBox="0 0 39 40" fill="none" xmlns="http://www.w3.org/2000/svg">
<path opacity="0.4" d="M33.5073 14.2312C31.801 6.72375 25.2523 3.34375 19.4998 3.34375C19.4998 3.34375 19.4998 3.34375 19.4835 3.34375C13.7473 3.34375 7.18229 6.7075 5.47604 14.215C3.57479 22.6 8.70979 29.7012 13.3573 34.17C15.0798 35.8275 17.2898 36.6562 19.4998 36.6562C21.7098 36.6562 23.9198 35.8275 25.626 34.17C30.2735 29.7012 35.4085 22.6162 33.5073 14.2312Z" fill="white"/>
<path d="M19.5001 22.3723C22.3271 22.3723 24.6188 20.0805 24.6188 17.2535C24.6188 14.4265 22.3271 12.1348 19.5001 12.1348C16.6731 12.1348 14.3813 14.4265 14.3813 17.2535C14.3813 20.0805 16.6731 22.3723 19.5001 22.3723Z" fill="white"/>
</svg>
