<svg width="24" height="24" viewBox="0 0 24 24" fill="none" xmlns="http://www.w3.org/2000/svg">
<path opacity="0.4" d="M9 7.2V16.79C9 20 11 22 14.2 22H16.79C19.99 22 21.99 20 21.99 16.8V7.2C22 4 20 2 16.8 2H14.2C11 2 9 4 9 7.2Z" fill="white"/>
<path d="M5.56994 8.11953L2.21994 11.4695C1.92994 11.7595 1.92994 12.2395 2.21994 12.5295L5.56994 15.8795C5.85994 16.1695 6.33994 16.1695 6.62994 15.8795C6.91994 15.5895 6.91994 15.1095 6.62994 14.8195L4.55994 12.7495H15.2499C15.6599 12.7495 15.9999 12.4095 15.9999 11.9995C15.9999 11.5895 15.6599 11.2495 15.2499 11.2495H4.55994L6.62994 9.17953C6.77994 9.02953 6.84994 8.83953 6.84994 8.64953C6.84994 8.45953 6.77994 8.25953 6.62994 8.11953C6.33994 7.81953 5.86994 7.81953 5.56994 8.11953Z" fill="white"/>
</svg>
