<svg width="370" height="100" viewBox="0 0 370 100" fill="none" xmlns="http://www.w3.org/2000/svg">
<path d="M361.553 52.771C361.553 61.9127 354.142 69.3235 345 69.3235C335.858 69.3235 328.447 61.9127 328.447 52.771C328.447 43.6293 335.858 36.2185 345 36.2185C354.142 36.2185 361.553 43.6293 361.553 52.771Z" fill="#003566" stroke="#FFC300" stroke-width="3.02"/>
<path d="M345 53.6457C344.146 53.6457 343.438 52.9373 343.438 52.0832V41.6665C343.438 40.8123 344.146 40.104 345 40.104C345.854 40.104 346.562 40.8123 346.562 41.6665V52.0832C346.562 52.9373 345.854 53.6457 345 53.6457Z" fill="#FFC300"/>
<path d="M351.021 32.1873H338.979C338.146 32.1873 337.479 31.5207 337.479 30.6873C337.479 29.854 338.146 29.1665 338.979 29.1665H351.021C351.854 29.1665 352.521 29.8332 352.521 30.6665C352.521 31.4998 351.854 32.1873 351.021 32.1873Z" fill="#FFC300"/>
<path d="M24.9128 65.4C22.9661 65.4 21.1795 65.0533 19.5528 64.36C17.9261 63.6667 16.5128 62.68 15.3128 61.4C14.1128 60.0933 13.1795 58.56 12.5128 56.8C11.8728 55.04 11.5528 53.1067 11.5528 51C11.5528 49 11.8995 47.1467 12.5928 45.44C13.3128 43.7067 14.2995 42.1867 15.5528 40.88C16.8061 39.5733 18.2595 38.56 19.9128 37.84C21.5661 37.12 23.3528 36.76 25.2728 36.76C26.6328 36.76 27.9528 36.9733 29.2328 37.4C30.5395 37.8 31.7128 38.3733 32.7528 39.12C33.8195 39.84 34.6861 40.6667 35.3528 41.6L32.4728 44.6C31.6995 43.8267 30.9128 43.1867 30.1128 42.68C29.3395 42.1467 28.5395 41.7467 27.7128 41.48C26.9128 41.2133 26.0995 41.08 25.2728 41.08C23.9661 41.08 22.7395 41.3333 21.5928 41.84C20.4728 42.32 19.4861 43 18.6328 43.88C17.8061 44.76 17.1528 45.8133 16.6728 47.04C16.1928 48.24 15.9528 49.56 15.9528 51C15.9528 52.52 16.1795 53.9067 16.6328 55.16C17.1128 56.3867 17.7795 57.44 18.6328 58.32C19.4861 59.2 20.4995 59.88 21.6728 60.36C22.8728 60.8133 24.1928 61.04 25.6328 61.04C26.5128 61.04 27.3795 60.92 28.2328 60.68C29.0861 60.44 29.8861 60.0933 30.6328 59.64C31.3795 59.1867 32.0595 58.6533 32.6728 58.04L34.8328 61.56C34.2195 62.28 33.3795 62.9333 32.3128 63.52C31.2728 64.1067 30.0995 64.5733 28.7928 64.92C27.5128 65.24 26.2195 65.4 24.9128 65.4ZM39.6613 65V35.4H43.7813V48.32L43.0613 48.8C43.3279 47.8667 43.8479 47.0133 44.6213 46.24C45.3946 45.44 46.3146 44.8 47.3813 44.32C48.4479 43.8133 49.5413 43.56 50.6613 43.56C52.2613 43.56 53.5946 43.88 54.6613 44.52C55.7279 45.1333 56.5279 46.08 57.0613 47.36C57.5946 48.64 57.8613 50.2533 57.8613 52.2V65H53.7413V52.48C53.7413 51.28 53.5813 50.2933 53.2613 49.52C52.9413 48.72 52.4479 48.1467 51.7813 47.8C51.1146 47.4267 50.2879 47.2667 49.3013 47.32C48.5013 47.32 47.7679 47.4533 47.1013 47.72C46.4346 47.96 45.8479 48.3067 45.3413 48.76C44.8613 49.2133 44.4746 49.7467 44.1813 50.36C43.9146 50.9467 43.7813 51.5867 43.7813 52.28V65H41.7413C41.3946 65 41.0479 65 40.7013 65C40.3546 65 40.0079 65 39.6613 65ZM63.4503 65V44H67.6103V50.6L67.2103 49C67.5036 47.9867 67.997 47.0667 68.6903 46.24C69.4103 45.4133 70.2236 44.76 71.1303 44.28C72.0636 43.8 73.0236 43.56 74.0103 43.56C74.4636 43.56 74.8903 43.6 75.2903 43.68C75.717 43.76 76.0503 43.8533 76.2903 43.96L75.2103 48.44C74.8903 48.3067 74.5303 48.2 74.1303 48.12C73.757 48.0133 73.3836 47.96 73.0103 47.96C72.2903 47.96 71.597 48.1067 70.9303 48.4C70.2903 48.6667 69.717 49.0533 69.2103 49.56C68.7303 50.04 68.3436 50.6133 68.0503 51.28C67.757 51.92 67.6103 52.6267 67.6103 53.4V65H63.4503ZM88.1247 65.4C86.0714 65.4 84.2314 64.9333 82.6047 64C81.0047 63.04 79.738 61.7467 78.8047 60.12C77.8714 58.4667 77.4047 56.5867 77.4047 54.48C77.4047 52.3733 77.8714 50.5067 78.8047 48.88C79.738 47.2267 81.0047 45.9333 82.6047 45C84.2314 44.04 86.0714 43.56 88.1247 43.56C90.1514 43.56 91.9647 44.04 93.5647 45C95.1914 45.9333 96.4714 47.2267 97.4047 48.88C98.338 50.5067 98.8047 52.3733 98.8047 54.48C98.8047 56.5867 98.338 58.4667 97.4047 60.12C96.4714 61.7467 95.1914 63.04 93.5647 64C91.9647 64.9333 90.1514 65.4 88.1247 65.4ZM88.1247 61.64C89.378 61.64 90.498 61.3333 91.4847 60.72C92.4714 60.08 93.2447 59.2267 93.8047 58.16C94.3647 57.0667 94.6314 55.84 94.6047 54.48C94.6314 53.0933 94.3647 51.8667 93.8047 50.8C93.2447 49.7067 92.4714 48.8533 91.4847 48.24C90.498 47.6267 89.378 47.32 88.1247 47.32C86.8714 47.32 85.738 47.64 84.7247 48.28C83.738 48.8933 82.9647 49.7467 82.4047 50.84C81.8447 51.9067 81.578 53.12 81.6047 54.48C81.578 55.84 81.8447 57.0667 82.4047 58.16C82.9647 59.2267 83.738 60.08 84.7247 60.72C85.738 61.3333 86.8714 61.64 88.1247 61.64ZM103.294 65V44H107.414V48.32L106.694 48.8C106.961 47.8667 107.481 47.0133 108.254 46.24C109.027 45.44 109.947 44.8 111.014 44.32C112.081 43.8133 113.174 43.56 114.294 43.56C115.894 43.56 117.227 43.88 118.294 44.52C119.361 45.1333 120.161 46.08 120.694 47.36C121.227 48.64 121.494 50.2533 121.494 52.2V65H117.374V52.48C117.374 51.28 117.214 50.2933 116.894 49.52C116.574 48.72 116.081 48.1467 115.414 47.8C114.747 47.4267 113.921 47.2667 112.934 47.32C112.134 47.32 111.401 47.4533 110.734 47.72C110.067 47.96 109.481 48.3067 108.974 48.76C108.494 49.2133 108.107 49.7467 107.814 50.36C107.547 50.9467 107.414 51.5867 107.414 52.28V65H105.374C105.027 65 104.681 65 104.334 65C103.987 65 103.641 65 103.294 65ZM136.523 65.4C134.47 65.4 132.63 64.9333 131.003 64C129.403 63.04 128.136 61.7467 127.203 60.12C126.27 58.4667 125.803 56.5867 125.803 54.48C125.803 52.3733 126.27 50.5067 127.203 48.88C128.136 47.2267 129.403 45.9333 131.003 45C132.63 44.04 134.47 43.56 136.523 43.56C138.55 43.56 140.363 44.04 141.963 45C143.59 45.9333 144.87 47.2267 145.803 48.88C146.736 50.5067 147.203 52.3733 147.203 54.48C147.203 56.5867 146.736 58.4667 145.803 60.12C144.87 61.7467 143.59 63.04 141.963 64C140.363 64.9333 138.55 65.4 136.523 65.4ZM136.523 61.64C137.776 61.64 138.896 61.3333 139.883 60.72C140.87 60.08 141.643 59.2267 142.203 58.16C142.763 57.0667 143.03 55.84 143.003 54.48C143.03 53.0933 142.763 51.8667 142.203 50.8C141.643 49.7067 140.87 48.8533 139.883 48.24C138.896 47.6267 137.776 47.32 136.523 47.32C135.27 47.32 134.136 47.64 133.123 48.28C132.136 48.8933 131.363 49.7467 130.803 50.84C130.243 51.9067 129.976 53.12 130.003 54.48C129.976 55.84 130.243 57.0667 130.803 58.16C131.363 59.2267 132.136 60.08 133.123 60.72C134.136 61.3333 135.27 61.64 136.523 61.64Z" fill="#FFC300"/>
<path d="M156.527 36.5625H160.609L164.77 58.457L176.527 36.5625H180.98L165.512 65H162.113L156.527 36.5625ZM154.496 36.5625H158.559L155.961 55.7227L154.34 65H149.555L154.496 36.5625ZM178.734 36.5625H182.836L177.895 65H173.109L174.809 55.3125L178.734 36.5625ZM200.891 40.6055L188.488 65H183.293L198.605 36.5625H201.945L200.891 40.6055ZM203.586 65L199.562 40.0781L199.855 36.5625H202.961L208.449 65H203.586ZM204.973 54.4531L204.289 58.3398H189.25L189.934 54.4531H204.973ZM227.461 36.5625L222.539 65H217.773L222.715 36.5625H227.461ZM236.113 36.5625L235.43 40.4688H213.457L214.141 36.5625H236.113ZM254.031 55.7617L258.719 55.7031C258.406 57.7344 257.684 59.4857 256.551 60.957C255.431 62.4154 254.025 63.5352 252.332 64.3164C250.639 65.0846 248.777 65.4427 246.746 65.3906C244.884 65.3516 243.322 64.9414 242.059 64.1602C240.796 63.3789 239.806 62.3503 239.09 61.0742C238.374 59.7852 237.898 58.3529 237.664 56.7773C237.443 55.2018 237.443 53.6003 237.664 51.9727L237.996 49.6094C238.257 47.8646 238.732 46.1784 239.422 44.5508C240.112 42.9232 241.01 41.4714 242.117 40.1953C243.237 38.9193 244.565 37.9232 246.102 37.207C247.638 36.4779 249.376 36.1328 251.316 36.1719C253.309 36.2109 254.982 36.6471 256.336 37.4805C257.703 38.3008 258.751 39.4401 259.48 40.8984C260.21 42.3568 260.607 44.0495 260.672 45.9766L255.926 45.957C255.926 44.8372 255.77 43.8411 255.457 42.9688C255.158 42.0964 254.656 41.4062 253.953 40.8984C253.25 40.3906 252.286 40.1172 251.062 40.0781C249.734 40.0391 248.589 40.293 247.625 40.8398C246.661 41.3867 245.848 42.1289 245.184 43.0664C244.533 44.0039 244.018 45.0456 243.641 46.1914C243.263 47.3242 242.99 48.4505 242.82 49.5703L242.469 51.9922C242.339 52.9297 242.273 53.9388 242.273 55.0195C242.273 56.1003 242.404 57.1224 242.664 58.0859C242.938 59.0495 243.413 59.8503 244.09 60.4883C244.78 61.1133 245.75 61.4453 247 61.4844C248.302 61.5365 249.415 61.3346 250.34 60.8789C251.277 60.4232 252.046 59.7591 252.645 58.8867C253.257 58.0143 253.719 56.9727 254.031 55.7617ZM284.723 48.4375L284.039 52.3242H269.352L270.035 48.4375H284.723ZM273.316 36.5625L268.375 65H263.57L268.512 36.5625H273.316ZM290.426 36.5625L285.484 65H280.738L285.66 36.5625H290.426Z" fill="white"/>
<line x1="323.49" y1="61.51" x2="301.51" y2="61.51" stroke="#FFC300" stroke-width="3.02" stroke-linecap="round"/>
<line x1="318.49" y1="51.51" x2="296.51" y2="51.51" stroke="#FFC300" stroke-width="3.02" stroke-linecap="round"/>
<line x1="323.49" y1="41.51" x2="301.51" y2="41.51" stroke="#FFC300" stroke-width="3.02" stroke-linecap="round"/>
</svg>
