<svg width="24" height="24" viewBox="0 0 24 24" fill="none" xmlns="http://www.w3.org/2000/svg">
<path opacity="0.4" d="M19.88 20.9396C18.93 21.6396 17.68 21.9996 16.19 21.9996H7.80997C7.56997 21.9996 7.32998 21.9896 7.09998 21.9596L14 15.0596L19.88 20.9396Z" fill="#003566"/>
<path opacity="0.4" d="M22.0001 7.80961V16.1896C22.0001 17.6796 21.6401 18.9296 20.9401 19.8796L15.0601 13.9996L21.9601 7.09961C21.9901 7.32961 22.0001 7.56961 22.0001 7.80961Z" fill="#003566"/>
<path opacity="0.4" d="M15.06 14L20.94 19.88C20.65 20.3 20.3 20.65 19.88 20.94L14 15.06L7.10001 21.96C6.46001 21.92 5.88001 21.79 5.35001 21.59C3.21001 20.81 2 18.91 2 16.19V7.81C2 4.17 4.17 2 7.81 2H16.19C18.91 2 20.81 3.21 21.59 5.35C21.79 5.88 21.92 6.46 21.96 7.1L15.06 14Z" fill="#003566"/>
<path d="M15.06 13.9996L20.94 19.8796C20.65 20.2996 20.3 20.6496 19.88 20.9396L14 15.0596L7.09998 21.9596C6.45998 21.9196 5.87998 21.7896 5.34998 21.5896L5.73996 21.1996L21.59 5.34961C21.79 5.87961 21.92 6.45961 21.96 7.09961L15.06 13.9996Z" fill="#003566"/>
<path d="M12.24 7.93027C11.86 6.28027 10.4001 5.54027 9.12005 5.53027C7.84005 5.53027 6.38006 6.27027 6.00006 7.92027C5.58006 9.75027 6.70005 11.2803 7.71005 12.2403C8.11005 12.6203 8.61005 12.8003 9.12005 12.8003C9.63005 12.8003 10.1301 12.6103 10.5301 12.2403C11.5401 11.2803 12.66 9.75028 12.24 7.93027ZM9.15005 9.49027C8.60005 9.49027 8.15005 9.04027 8.15005 8.49027C8.15005 7.94027 8.59005 7.49027 9.15005 7.49027H9.16006C9.71006 7.49027 10.1601 7.94027 10.1601 8.49027C10.1601 9.04027 9.70005 9.49027 9.15005 9.49027Z" fill="#003566"/>
</svg>
