<svg width="32" height="32" viewBox="0 0 32 32" fill="none" xmlns="http://www.w3.org/2000/svg">
<path opacity="0.4" d="M15.9998 29.3464C23.3636 29.3464 29.3332 23.3768 29.3332 16.013C29.3332 8.64922 23.3636 2.67969 15.9998 2.67969C8.63604 2.67969 2.6665 8.64922 2.6665 16.013C2.6665 23.3768 8.63604 29.3464 15.9998 29.3464Z" fill="#003566"/>
<path d="M16 9.25293C13.24 9.25293 11 11.4929 11 14.2529C11 16.9596 13.12 19.1596 15.9333 19.2396C15.9733 19.2396 16.0267 19.2396 16.0533 19.2396C16.08 19.2396 16.12 19.2396 16.1467 19.2396C16.16 19.2396 16.1733 19.2396 16.1733 19.2396C18.8667 19.1463 20.9867 16.9596 21 14.2529C21 11.4929 18.76 9.25293 16 9.25293Z" fill="#003566"/>
<path d="M25.04 25.8136C22.6666 28.0003 19.4933 29.347 16 29.347C12.5066 29.347 9.33329 28.0003 6.95996 25.8136C7.27996 24.6003 8.14663 23.4936 9.41329 22.6403C13.0533 20.2136 18.9733 20.2136 22.5866 22.6403C23.8666 23.4936 24.72 24.6003 25.04 25.8136Z" fill="#003566"/>
</svg>
