<svg width="142" height="142" viewBox="0 0 142 142" fill="none" xmlns="http://www.w3.org/2000/svg">
<path opacity="0.4" d="M71 130.226C103.677 130.226 130.167 103.736 130.167 71.0592C130.167 38.3824 103.677 11.8926 71 11.8926C38.3232 11.8926 11.8334 38.3824 11.8334 71.0592C11.8334 103.736 38.3232 130.226 71 130.226Z" fill="#003566"/>
<path d="M71 41.0615C58.7525 41.0615 48.8125 51.0015 48.8125 63.249C48.8125 75.2599 58.22 85.0224 70.7042 85.3774C70.8817 85.3774 71.1183 85.3774 71.2367 85.3774C71.355 85.3774 71.5325 85.3774 71.6508 85.3774C71.71 85.3774 71.7692 85.3774 71.7692 85.3774C83.7208 84.9632 93.1283 75.2599 93.1875 63.249C93.1875 51.0015 83.2475 41.0615 71 41.0615Z" fill="#003566"/>
<path d="M111.115 114.547C100.583 124.25 86.5017 130.226 71 130.226C55.4983 130.226 41.4167 124.25 30.885 114.547C32.305 109.162 36.1508 104.252 41.7717 100.465C57.9242 89.6966 84.1942 89.6966 100.228 100.465C105.908 104.252 109.695 109.162 111.115 114.547Z" fill="#003566"/>
</svg>
