<svg width="92" height="92" viewBox="0 0 92 92" fill="none" xmlns="http://www.w3.org/2000/svg">
<path opacity="0.4" d="M45.9998 84.3708C67.1708 84.3708 84.3332 67.2084 84.3332 46.0374C84.3332 24.8665 67.1708 7.7041 45.9998 7.7041C24.8289 7.7041 7.6665 24.8665 7.6665 46.0374C7.6665 67.2084 24.8289 84.3708 45.9998 84.3708Z" fill="#F5F5F5"/>
<path d="M46 26.603C38.065 26.603 31.625 33.043 31.625 40.978C31.625 48.7597 37.72 55.0847 45.8083 55.3147C45.9233 55.3147 46.0767 55.3147 46.1533 55.3147C46.23 55.3147 46.345 55.3147 46.4217 55.3147C46.46 55.3147 46.4983 55.3147 46.4983 55.3147C54.2417 55.0464 60.3367 48.7597 60.375 40.978C60.375 33.043 53.935 26.603 46 26.603Z" fill="#F5F5F5"/>
<path d="M71.9907 74.2142C65.1674 80.5009 56.0441 84.3726 46.0007 84.3726C35.9574 84.3726 26.8341 80.5009 20.0107 74.2142C20.9307 70.7259 23.4224 67.5442 27.0641 65.0909C37.5291 58.1142 54.5491 58.1142 64.9374 65.0909C68.6174 67.5442 71.0707 70.7259 71.9907 74.2142Z" fill="#F5F5F5"/>
</svg>
