<svg width="64" height="64" viewBox="0 0 64 64" fill="none" xmlns="http://www.w3.org/2000/svg">
<path opacity="0.4" d="M31.9997 58.6927C46.7273 58.6927 58.6663 46.7536 58.6663 32.026C58.6663 17.2984 46.7273 5.35938 31.9997 5.35938C17.2721 5.35938 5.33301 17.2984 5.33301 32.026C5.33301 46.7536 17.2721 58.6927 31.9997 58.6927Z" fill="#003566"/>
<path d="M32 18.5068C26.48 18.5068 22 22.9868 22 28.5068C22 33.9202 26.24 38.3202 31.8667 38.4802C31.9467 38.4802 32.0533 38.4802 32.1067 38.4802C32.16 38.4802 32.24 38.4802 32.2933 38.4802C32.32 38.4802 32.3467 38.4802 32.3467 38.4802C37.7333 38.2935 41.9733 33.9202 42 28.5068C42 22.9868 37.52 18.5068 32 18.5068Z" fill="#003566"/>
<path d="M50.0804 51.6273C45.3337 56.0006 38.9871 58.694 32.0004 58.694C25.0137 58.694 18.6671 56.0006 13.9204 51.6273C14.5604 49.2006 16.2937 46.9873 18.8271 45.2806C26.1071 40.4273 37.9471 40.4273 45.1737 45.2806C47.7337 46.9873 49.4404 49.2006 50.0804 51.6273Z" fill="#003566"/>
</svg>
