<svg width="24" height="25" viewBox="0 0 24 25" fill="none" xmlns="http://www.w3.org/2000/svg">
<path opacity="0.4" d="M20.91 11.6203C20.91 16.5103 17.36 21.0903 12.51 22.4303C12.18 22.5203 11.82 22.5203 11.49 22.4303C6.63996 21.0903 3.08997 16.5103 3.08997 11.6203V7.23031C3.08997 6.41031 3.70998 5.48031 4.47998 5.17031L10.05 2.89031C11.3 2.38031 12.71 2.38031 13.96 2.89031L19.53 5.17031C20.29 5.48031 20.92 6.41031 20.92 7.23031L20.91 11.6203Z" fill="#003566"/>
<path d="M14.5 11C14.5 9.62 13.38 8.5 12 8.5C10.62 8.5 9.5 9.62 9.5 11C9.5 12.12 10.24 13.05 11.25 13.37V16C11.25 16.41 11.59 16.75 12 16.75C12.41 16.75 12.75 16.41 12.75 16V13.37C13.76 13.05 14.5 12.12 14.5 11Z" fill="#003566"/>
</svg>
