<svg width="64" height="65" viewBox="0 0 64 65" fill="none" xmlns="http://www.w3.org/2000/svg">
<rect y="0.410156" width="64" height="64" fill="white"/>
<rect x="3.2002" y="3.61035" width="57.6" height="57.6" fill="#FF64C8"/>
<mask id="mask0_208_1853" style="mask-type:alpha" maskUnits="userSpaceOnUse" x="3" y="3" width="58" height="59">
<rect x="3.2002" y="3.61035" width="57.6" height="57.6" fill="white"/>
</mask>
<g mask="url(#mask0_208_1853)">
<path fill-rule="evenodd" clip-rule="evenodd" d="M52.954 54.5281C51.2561 52.072 48.7529 50.2867 45.8777 49.4813L39.1997 47.6105V42.8107C42.0228 40.6901 43.8767 37.3529 43.9906 33.5781C44.3852 33.752 44.8207 33.8505 45.2799 33.8505C47.0471 33.8505 48.4799 32.4179 48.4799 30.6505C48.4799 28.8832 47.0471 27.4505 45.2799 27.4505C44.8244 27.4505 44.3921 27.547 43.9999 27.7185V26.8105C43.9999 20.183 38.6273 14.8105 31.9999 14.8105H31.9997C25.3724 14.8105 19.9999 20.183 19.9999 26.8105V27.7185C19.6076 27.547 19.1753 27.4505 18.7199 27.4505C16.9525 27.4505 15.5199 28.8832 15.5199 30.6505C15.5199 32.4179 16.9525 33.8505 18.7199 33.8505C19.1789 33.8505 19.6145 33.7521 20.0092 33.5781C20.1229 37.3529 21.9769 40.6901 24.7997 42.8107V47.6105L18.122 49.4813C15.2468 50.2867 12.7436 52.072 11.0457 54.5281L6.3999 61.2489L6.3999 66.0105H57.5999V61.2489L52.954 54.5281Z" fill="#FFCF83"/>
<path fill-rule="evenodd" clip-rule="evenodd" d="M31.9997 45.2104C30.52 45.2104 29.1037 44.9409 27.7949 44.4512C29.6564 45.6403 31.8669 46.3304 34.2397 46.3304C36.0093 46.3304 37.6876 45.9443 39.1997 45.2568V42.8105C37.1941 44.3171 34.7013 45.2104 31.9997 45.2104Z" fill="#F7A74F"/>
<path d="M20.4171 31.1175C20.4579 30.9689 20.4798 30.8122 20.4798 30.6506C20.4798 29.6786 19.6918 28.8906 18.7198 28.8906C18.4767 28.8906 18.2452 28.9399 18.0347 29.0289" stroke="#00004D" stroke-linecap="round" stroke-linejoin="round"/>
<path d="M43.5826 31.1175C43.5418 30.9689 43.52 30.8122 43.52 30.6506C43.52 29.6786 44.308 28.8906 45.28 28.8906C45.5229 28.8906 45.7544 28.9399 45.9651 29.0289" stroke="#00004D" stroke-linecap="round" stroke-linejoin="round"/>
<path fill-rule="evenodd" clip-rule="evenodd" d="M33.9201 38.9077C33.9201 38.3244 33.4473 37.8516 32.8641 37.8516C32.5066 37.8516 32.1911 38.0298 32.0001 38.3016C31.809 38.0298 31.4935 37.8516 31.1361 37.8516C30.5529 37.8516 30.0801 38.3244 30.0801 38.9077C30.0801 38.9442 30.082 38.9802 30.0855 39.0157C30.1418 40.0255 30.9762 40.8277 32.0001 40.8277C33.0239 40.8277 33.8583 40.0255 33.9146 39.0157C33.9182 38.9802 33.9201 38.9442 33.9201 38.9077" fill="#AE1328"/>
<path fill-rule="evenodd" clip-rule="evenodd" d="M37.28 31.7582C37.6866 31.7582 38.0632 31.8854 38.3734 32.1011C38.491 31.9076 38.56 31.6814 38.56 31.4382C38.56 30.7313 37.9869 30.1582 37.28 30.1582C36.5731 30.1582 36 30.7313 36 31.4382C36 31.6814 36.069 31.9076 36.1866 32.1011C36.4968 31.8854 36.8734 31.7582 37.28 31.7582" fill="#00004D"/>
<path fill-rule="evenodd" clip-rule="evenodd" d="M26.7199 31.7582C27.1265 31.7582 27.5031 31.8854 27.8134 32.1011C27.931 31.9076 27.9999 31.6814 27.9999 31.4382C27.9999 30.7313 27.4268 30.1582 26.7199 30.1582C26.0131 30.1582 25.4399 30.7313 25.4399 31.4382C25.4399 31.6814 25.5089 31.9076 25.6265 32.1011C25.9367 31.8854 26.3134 31.7582 26.7199 31.7582" fill="#00004D"/>
<path d="M31.975 29.8496L33.5367 33.8656C33.8631 34.7048 33.2441 35.6096 32.3438 35.6096H31.335" stroke="#00004D" stroke-linecap="round" stroke-linejoin="round"/>
<path fill-rule="evenodd" clip-rule="evenodd" d="M37.191 14.2368C37.3884 13.6641 37.4972 13.0502 37.4972 12.4105C37.4972 9.31775 34.99 6.81055 31.8972 6.81055C28.8044 6.81055 26.2972 9.31775 26.2972 12.4105C26.2972 13.0838 26.4162 13.7293 26.6342 14.3272C21.7786 16.4481 18.4004 21.3531 18.4004 26.9808V27.4664C18.5057 27.4558 18.6122 27.4501 18.7204 27.4501C19.6806 27.4501 20.5396 27.875 21.1262 28.5448L21.1567 28.5374L22.1167 22.7773L22.9943 24.9717C23.2375 25.579 23.8258 25.9773 24.4801 25.9773H39.5207C40.1748 25.9773 40.7631 25.579 41.0063 24.9717L41.8839 22.7773L42.8439 28.5374L42.8734 28.5462C43.4599 27.8757 44.3194 27.4501 45.2804 27.4501C45.3884 27.4501 45.495 27.4558 45.6004 27.4664V26.8101C45.6004 21.1374 42.127 16.2766 37.191 14.2368" fill="#00004D"/>
<path fill-rule="evenodd" clip-rule="evenodd" d="M57.5999 61.2487L52.9541 54.528C51.2562 52.072 48.753 50.2865 45.8777 49.4811L39.9999 47.8344V44.4104C39.9999 43.9684 39.6418 43.6104 39.1999 43.6104V44.4105C37.1943 45.9171 34.7015 46.8104 31.9999 46.8104C29.2983 46.8104 26.8055 45.9171 24.7999 44.4105V43.6104C24.358 43.6104 23.9999 43.9684 23.9999 44.4104V47.8344L18.1221 49.4811C15.2468 50.2865 12.7436 52.072 11.0457 54.528L6.3999 61.2486V66.0103H57.5999V61.2487Z" fill="#F5F5F8"/>
<path d="M36.2333 50.1221C34.9166 50.6186 33.4901 50.8901 32 50.8901C28.9264 50.8901 26.1226 49.7345 23.9995 47.834" stroke="#00004D" stroke-linecap="round" stroke-linejoin="round"/>
</g>
</svg>
