<svg width="64" height="65" viewBox="0 0 64 65" fill="none" xmlns="http://www.w3.org/2000/svg">
<rect y="0.410156" width="64" height="64" fill="white"/>
<rect x="3.2002" y="3.61035" width="57.6" height="57.6" fill="#AE0BFF"/>
<mask id="mask0_208_1850" style="mask-type:alpha" maskUnits="userSpaceOnUse" x="3" y="3" width="58" height="59">
<rect x="3.2002" y="3.61035" width="57.6" height="57.6" fill="white"/>
</mask>
<g mask="url(#mask0_208_1850)">
<path fill-rule="evenodd" clip-rule="evenodd" d="M52.954 54.5281C51.2561 52.072 48.7529 50.2867 45.8777 49.4813L39.1997 47.6105V42.8107C42.0228 40.6901 43.8767 37.3529 43.9906 33.5781C44.3852 33.752 44.8207 33.8505 45.2799 33.8505C47.0471 33.8505 48.4799 32.4179 48.4799 30.6505C48.4799 28.8832 47.0471 27.4505 45.2799 27.4505C44.8244 27.4505 44.3921 27.547 43.9999 27.7185V26.8105C43.9999 20.183 38.6273 14.8105 31.9999 14.8105H31.9997C25.3724 14.8105 19.9999 20.183 19.9999 26.8105V27.7185C19.6076 27.547 19.1753 27.4505 18.7199 27.4505C16.9525 27.4505 15.5199 28.8832 15.5199 30.6505C15.5199 32.4179 16.9525 33.8505 18.7199 33.8505C19.1789 33.8505 19.6145 33.7521 20.0092 33.5781C20.1229 37.3529 21.9769 40.6901 24.7997 42.8107V47.6105L18.122 49.4813C15.2468 50.2867 12.7436 52.072 11.0457 54.5281L6.3999 61.2489L6.3999 66.0105H57.5999V61.2489L52.954 54.5281Z" fill="#F5CDD3"/>
<path fill-rule="evenodd" clip-rule="evenodd" d="M31.9997 45.2104C30.52 45.2104 29.1037 44.9409 27.7949 44.4512C29.6564 45.6403 31.8669 46.3304 34.2397 46.3304C36.0093 46.3304 37.6876 45.9443 39.1997 45.2568V42.8105C37.1941 44.3171 34.7013 45.2104 31.9997 45.2104Z" fill="#F48C9D"/>
<path d="M20.4171 31.1175C20.4579 30.9689 20.4798 30.8122 20.4798 30.6506C20.4798 29.6786 19.6918 28.8906 18.7198 28.8906C18.4767 28.8906 18.2452 28.9399 18.0347 29.0289" stroke="#00004D" stroke-linecap="round" stroke-linejoin="round"/>
<path d="M43.5826 31.1175C43.5418 30.9689 43.52 30.8122 43.52 30.6506C43.52 29.6786 44.308 28.8906 45.28 28.8906C45.5229 28.8906 45.7544 28.9399 45.9651 29.0289" stroke="#00004D" stroke-linecap="round" stroke-linejoin="round"/>
<path fill-rule="evenodd" clip-rule="evenodd" d="M35.2003 37.8516C35.2003 39.6189 33.7677 41.0516 32.0003 41.0516C30.2329 41.0516 28.8003 39.6189 28.8003 37.8516H35.2003Z" fill="white"/>
<path fill-rule="evenodd" clip-rule="evenodd" d="M38.56 31.1296C38.56 31.8365 37.9869 32.4096 37.28 32.4096C36.5731 32.4096 36 31.8365 36 31.1296C36 30.4227 36.5731 29.8496 37.28 29.8496C37.9869 29.8496 38.56 30.4227 38.56 31.1296" fill="#00004D"/>
<path fill-rule="evenodd" clip-rule="evenodd" d="M27.9999 31.1296C27.9999 31.8365 27.4268 32.4096 26.7199 32.4096C26.0131 32.4096 25.4399 31.8365 25.4399 31.1296C25.4399 30.4227 26.0131 29.8496 26.7199 29.8496C27.4268 29.8496 27.9999 30.4227 27.9999 31.1296" fill="#00004D"/>
<path d="M31.9999 29.8496L33.5999 35.2896L31.3599 35.6096" stroke="#00004D" stroke-linecap="round" stroke-linejoin="round"/>
<path fill-rule="evenodd" clip-rule="evenodd" d="M43.0666 28.3434C43.5322 27.8966 44.132 27.5914 44.8002 27.4906V26.8107V21.1662C44.8002 18.7419 43.4304 16.5259 41.2624 15.4418L33.4312 11.5264C32.5303 11.0758 31.47 11.0758 30.5692 11.5264L22.738 15.4418C20.57 16.5259 19.2002 18.7419 19.2002 21.1662V27.4906C19.8684 27.5914 20.4682 27.8966 20.9338 28.3434V28.2739C20.9338 26.6878 21.6408 25.1842 22.8624 24.1725C24.5272 22.7934 26.8605 22.5576 28.7676 23.5755C30.7877 24.6538 33.2127 24.6538 35.2328 23.5755C37.1399 22.5576 39.4732 22.7934 41.138 24.1725C42.3596 25.1842 43.0666 26.6878 43.0666 28.2739V28.3434Z" fill="#FFCA00"/>
<path fill-rule="evenodd" clip-rule="evenodd" d="M57.5999 61.2484L52.954 54.5276C51.2562 52.0716 48.753 50.2862 45.8777 49.4807L45.5239 49.3815L44.0929 46.6039C43.7405 45.9199 43.1537 45.3858 42.4396 45.0994L39.1999 43.7998V47.6484C39.1994 47.6494 39.1993 47.65 39.1988 47.651L32.0409 54.809C32.0271 54.809 32.0137 54.81 31.9999 54.81L24.7999 47.61V43.7598L21.5602 45.0596C20.8461 45.346 20.2593 45.8801 19.9069 46.5639L18.4519 49.3882L18.122 49.4807C15.2468 50.2862 12.7436 52.0716 11.0457 54.5276L6.3999 61.2484V66.01H57.5999V61.2484Z" fill="#80C43B"/>
<path d="M18.4521 49.3887L32.0001 57.2301L41.8067 51.5831" stroke="#00004D" stroke-linecap="round" stroke-linejoin="round"/>
<path fill-rule="evenodd" clip-rule="evenodd" d="M28.3198 63.6295V63.6295C28.0547 63.6295 27.8398 63.4145 27.8398 63.1495V54.834L28.7998 55.3773V63.1495C28.7998 63.4145 28.585 63.6295 28.3198 63.6295" fill="#00004D"/>
<path fill-rule="evenodd" clip-rule="evenodd" d="M35.6797 60.2695V60.2695C35.4146 60.2695 35.1997 60.0545 35.1997 59.7895V55.3868L36.1597 54.834V59.7895C36.1597 60.0545 35.9448 60.2695 35.6797 60.2695" fill="#00004D"/>
<path d="M23.52 46.3301L24.8 47.6101" stroke="#00004D" stroke-linecap="round" stroke-linejoin="round"/>
<path fill-rule="evenodd" clip-rule="evenodd" d="M39.6848 27.9297H34.8848C34.1835 27.9297 33.5891 28.3815 33.3731 29.0094C33.1681 28.7425 32.8472 28.5697 32.4848 28.5697H31.4401C31.0779 28.5697 30.7566 28.7425 30.552 29.0094C30.3357 28.3815 29.7414 27.9297 29.0401 27.9297H24.2401C23.3565 27.9297 22.6401 28.6462 22.6401 29.5297V30.6497C22.6401 32.859 24.431 34.6497 26.6401 34.6497C28.8493 34.6497 30.6401 32.859 30.6401 30.6497C30.6401 30.0311 31.1416 29.5297 31.7601 29.5297H32.1648C32.7833 29.5297 33.2848 30.0311 33.2848 30.6497C33.2848 32.859 35.0755 34.6497 37.2848 34.6497C39.4939 34.6497 41.2848 32.859 41.2848 30.6497V29.5297C41.2848 28.6462 40.5683 27.9297 39.6848 27.9297" fill="#000066"/>
</g>
</svg>
