<svg width="65" height="65" viewBox="0 0 65 65" fill="none" xmlns="http://www.w3.org/2000/svg">
<rect y="0.410156" width="65" height="64" fill="white"/>
<rect x="3.25" y="3.61035" width="58.5" height="57.6" fill="#FB344F"/>
<mask id="mask0_208_1854" style="mask-type:alpha" maskUnits="userSpaceOnUse" x="3" y="3" width="59" height="59">
<rect x="3.25" y="3.61035" width="58.5" height="57.6" fill="white"/>
</mask>
<g mask="url(#mask0_208_1854)">
<path fill-rule="evenodd" clip-rule="evenodd" d="M53.7815 54.5281C52.057 52.072 49.5147 50.2867 46.5946 49.4813L39.8123 47.6105V42.8107C42.6795 40.6901 44.5624 37.3529 44.6781 33.5781C45.0788 33.752 45.5211 33.8505 45.9875 33.8505C47.7823 33.8505 49.2375 32.4179 49.2375 30.6505C49.2375 28.8832 47.7823 27.4505 45.9875 27.4505C45.5249 27.4505 45.0858 27.547 44.6875 27.7185V26.8105C44.6875 20.183 39.2309 14.8105 32.5 14.8105H32.4998C25.7689 14.8105 20.3125 20.183 20.3125 26.8105V27.7185C19.914 27.547 19.475 27.4505 19.0125 27.4505C17.2175 27.4505 15.7625 28.8832 15.7625 30.6505C15.7625 32.4179 17.2175 33.8505 19.0125 33.8505C19.4787 33.8505 19.921 33.7521 20.3219 33.5781C20.4375 37.3529 22.3203 40.6901 25.1873 42.8107V47.6105L18.4052 49.4813C15.4851 50.2867 12.9428 52.072 11.2183 54.5281L6.5 61.2489V66.0105H58.5V61.2489L53.7815 54.5281Z" fill="#FFCF83"/>
<path fill-rule="evenodd" clip-rule="evenodd" d="M32.5 45.2104C30.9972 45.2104 29.5587 44.9409 28.2295 44.4512C30.12 45.6403 32.3651 46.3304 34.775 46.3304C36.5722 46.3304 38.2767 45.9443 39.8125 45.2568V42.8105C37.7756 44.3171 35.2438 45.2104 32.5 45.2104Z" fill="#F7A74F"/>
<path d="M20.7365 31.1175C20.778 30.9689 20.8002 30.8122 20.8002 30.6506C20.8002 29.6786 19.9999 28.8906 19.0127 28.8906C18.7659 28.8906 18.5307 28.9399 18.3169 29.0289" stroke="#00004D" stroke-linecap="round" stroke-linejoin="round"/>
<path d="M44.2637 31.1175C44.2223 30.9689 44.2002 30.8122 44.2002 30.6506C44.2002 29.6786 45.0005 28.8906 45.9877 28.8906C46.2344 28.8906 46.4695 28.9399 46.6835 29.0289" stroke="#00004D" stroke-linecap="round" stroke-linejoin="round"/>
<path fill-rule="evenodd" clip-rule="evenodd" d="M35.75 37.8516C35.75 39.6189 34.295 41.0516 32.5 41.0516C30.705 41.0516 29.25 39.6189 29.25 37.8516H35.75Z" fill="white"/>
<path fill-rule="evenodd" clip-rule="evenodd" d="M39.1625 31.1296C39.1625 31.8365 38.5804 32.4096 37.8625 32.4096C37.1446 32.4096 36.5625 31.8365 36.5625 31.1296C36.5625 30.4227 37.1446 29.8496 37.8625 29.8496C38.5804 29.8496 39.1625 30.4227 39.1625 31.1296" fill="#00004D"/>
<path fill-rule="evenodd" clip-rule="evenodd" d="M28.4374 31.1296C28.4374 31.8365 27.8553 32.4096 27.1374 32.4096C26.4195 32.4096 25.8374 31.8365 25.8374 31.1296C25.8374 30.4227 26.4195 29.8496 27.1374 29.8496C27.8553 29.8496 28.4374 30.4227 28.4374 31.1296" fill="#00004D"/>
<path d="M32.4996 29.8496L34.1246 35.2896L31.8496 35.6096" stroke="#00004D" stroke-linecap="round" stroke-linejoin="round"/>
<path fill-rule="evenodd" clip-rule="evenodd" d="M47.833 14.8107C47.833 12.1597 45.6503 10.0107 42.958 10.0107C40.2657 10.0107 38.083 12.1597 38.083 14.8107C38.083 14.9618 38.091 15.1111 38.1049 15.2586C36.4078 14.4589 34.5074 14.0103 32.5003 14.0103C30.4049 14.0103 28.4271 14.5013 26.6742 15.3683C26.6958 15.1853 26.708 14.9995 26.708 14.8107C26.708 12.1597 24.5253 10.0107 21.833 10.0107C19.1407 10.0107 16.958 12.1597 16.958 14.8107C16.958 17.4352 19.0976 19.5664 21.7531 19.6087C20.332 21.6607 19.5003 24.1395 19.5003 26.8103V27.4901C20.2766 27.6055 20.962 27.9893 21.4562 28.545L21.4872 28.5375L22.1372 25.3375H35.445V20.7271L37.0427 25.3375H42.8633L43.5133 28.5375L43.5432 28.5464C44.0375 27.9899 44.7232 27.6056 45.5003 27.4901V26.8103C45.5003 24.1365 44.6665 21.6551 43.2427 19.6018C45.8024 19.4567 47.833 17.3674 47.833 14.8107" fill="#00004D"/>
<path fill-rule="evenodd" clip-rule="evenodd" d="M6.5 61.2489V66.0107H58.5V61.2491L53.7816 54.5283C52.057 52.0721 49.5149 50.2868 46.5946 49.4814L41.7981 48.1582L32.5 59.1875L23.2019 48.1582L18.4054 49.4814C15.4851 50.2868 12.9428 52.0721 11.2183 54.5283L6.5 61.2489Z" fill="#000066"/>
</g>
</svg>
