<svg width="64" height="65" viewBox="0 0 64 65" fill="none" xmlns="http://www.w3.org/2000/svg">
<rect y="0.410156" width="64" height="64" fill="white"/>
<rect x="3.2002" y="3.61035" width="57.6" height="57.6" fill="#F5F5F8"/>
<mask id="mask0_208_1852" style="mask-type:alpha" maskUnits="userSpaceOnUse" x="3" y="3" width="58" height="59">
<rect x="3.2002" y="3.61035" width="57.6" height="57.6" fill="white"/>
</mask>
<g mask="url(#mask0_208_1852)">
<path fill-rule="evenodd" clip-rule="evenodd" d="M52.954 54.5281C51.2561 52.072 48.7529 50.2867 45.8777 49.4813L39.1997 47.6105V42.8107C42.0228 40.6901 43.8767 37.3529 43.9906 33.5781C44.3852 33.752 44.8207 33.8505 45.2799 33.8505C47.0471 33.8505 48.4799 32.4179 48.4799 30.6505C48.4799 28.8832 47.0471 27.4505 45.2799 27.4505C44.8244 27.4505 44.3921 27.547 43.9999 27.7185V26.8105C43.9999 20.183 38.6273 14.8105 31.9999 14.8105H31.9997C25.3724 14.8105 19.9999 20.183 19.9999 26.8105V27.7185C19.6076 27.547 19.1753 27.4505 18.7199 27.4505C16.9525 27.4505 15.5199 28.8832 15.5199 30.6505C15.5199 32.4179 16.9525 33.8505 18.7199 33.8505C19.1789 33.8505 19.6145 33.7521 20.0092 33.5781C20.1229 37.3529 21.9769 40.6901 24.7997 42.8107V47.6105L18.122 49.4813C15.2468 50.2867 12.7436 52.072 11.0457 54.5281L6.3999 61.2489L6.3999 66.0105H57.5999V61.2489L52.954 54.5281Z" fill="#FFCF83"/>
<path fill-rule="evenodd" clip-rule="evenodd" d="M31.9997 45.2104C30.52 45.2104 29.1037 44.9409 27.7949 44.4512C29.6564 45.6403 31.8669 46.3304 34.2397 46.3304C36.0093 46.3304 37.6876 45.9443 39.1997 45.2568V42.8105C37.1941 44.3171 34.7013 45.2104 31.9997 45.2104Z" fill="#F7A74F"/>
<path d="M20.4171 31.1175C20.4579 30.9689 20.4798 30.8122 20.4798 30.6506C20.4798 29.6786 19.6918 28.8906 18.7198 28.8906C18.4767 28.8906 18.2452 28.9399 18.0347 29.0289" stroke="#00004D" stroke-linecap="round" stroke-linejoin="round"/>
<path d="M43.5826 31.1175C43.5418 30.9689 43.52 30.8122 43.52 30.6506C43.52 29.6786 44.308 28.8906 45.28 28.8906C45.5229 28.8906 45.7544 28.9399 45.9651 29.0289" stroke="#00004D" stroke-linecap="round" stroke-linejoin="round"/>
<path d="M34.0098 38.4922C33.5845 39.1647 32.8342 39.6111 31.9798 39.6111C31.1522 39.6111 30.4222 39.192 29.9907 38.5544" stroke="#00004D" stroke-linecap="round" stroke-linejoin="round"/>
<path fill-rule="evenodd" clip-rule="evenodd" d="M27.1708 32.2206C28.0011 31.9184 28.4292 31.0002 28.1272 30.1699L25.1201 31.2643C25.4222 32.0947 26.3406 32.5229 27.1708 32.2206" fill="#00004D"/>
<path fill-rule="evenodd" clip-rule="evenodd" d="M36.7334 32.2206C35.9032 31.9184 35.4748 31.0002 35.7771 30.1699L38.7841 31.2643C38.4819 32.0947 37.5636 32.5229 36.7334 32.2206" fill="#00004D"/>
<path d="M31.975 29.8496L33.5367 33.8656C33.8631 34.7048 33.2441 35.6096 32.3438 35.6096H31.335" stroke="#00004D" stroke-linecap="round" stroke-linejoin="round"/>
<path fill-rule="evenodd" clip-rule="evenodd" d="M37.7478 14.4634L34.2318 13.155C33.9205 13.0394 33.6021 12.9499 33.28 12.8843V12.8525C33.28 12.4443 32.9491 12.1133 32.541 12.1133H31.459C31.051 12.1133 30.72 12.4443 30.72 12.8525V12.8843C30.3979 12.9499 30.0795 13.0394 29.7682 13.155L26.2522 14.4634C22.4933 15.8621 20 19.4501 20 23.4606V26.1702L32 24.5702L44 26.1702V23.4606C44 19.4501 41.5067 15.8621 37.7478 14.4634" fill="#2384F5"/>
<path d="M32.0084 13.0732C32.0084 13.0732 24.7793 14.8438 24.7793 24.5648" stroke="#00004D" stroke-linecap="round" stroke-linejoin="round"/>
<path d="M32.0083 13.0732C32.0083 13.0732 35.2589 13.8694 37.4006 17.3251" stroke="#00004D" stroke-linecap="round" stroke-linejoin="round"/>
<path fill-rule="evenodd" clip-rule="evenodd" d="M20.0067 26.1666C21.775 25.0748 23.7059 24.2646 25.7441 23.7159C27.7822 23.1716 29.9092 22.929 32.0003 22.9297C34.0913 22.929 36.2183 23.1716 38.2564 23.7159C40.2947 24.2646 42.2255 25.0748 43.9939 26.1666C44.2252 26.3097 44.2971 26.6132 44.1542 26.8447C44.0532 27.0082 43.8721 27.0921 43.6931 27.0767L43.6868 27.0762C42.6611 26.9874 41.6665 26.8446 40.6817 26.7231C39.6979 26.5972 38.7291 26.479 37.7657 26.3897C35.8415 26.202 33.9364 26.1298 32.0003 26.1297C30.0641 26.1298 28.159 26.202 26.2348 26.3897C25.2715 26.479 24.3027 26.5972 23.3188 26.7231C22.334 26.8446 21.3395 26.9874 20.3137 27.0762L20.3081 27.0767C20.0369 27.1002 19.7982 26.8994 19.7748 26.6284C19.7582 26.4369 19.854 26.2615 20.0067 26.1666" fill="#000066"/>
<path fill-rule="evenodd" clip-rule="evenodd" d="M57.5999 61.2484L52.954 54.5276C51.2562 52.0716 48.753 50.2862 45.8777 49.4807L45.5239 49.3815L44.0929 46.6039C43.7405 45.9199 43.1537 45.3858 42.4396 45.0994L39.1999 43.7998V47.6484C39.1994 47.6494 39.1993 47.65 39.1988 47.651L32.0409 54.809C32.0271 54.809 32.0137 54.81 31.9999 54.81L24.7999 47.61V43.7598L21.5602 45.0596C20.8461 45.346 20.2593 45.8801 19.9069 46.5639L18.4519 49.3882L18.122 49.4807C15.2468 50.2862 12.7436 52.0716 11.0457 54.5276L6.3999 61.2484V66.01H57.5999V61.2484Z" fill="#FB344F"/>
<path d="M18.4521 49.3887L32.0001 57.2301L41.8067 51.5831" stroke="#00004D" stroke-linecap="round" stroke-linejoin="round"/>
<path fill-rule="evenodd" clip-rule="evenodd" d="M28.3198 63.6295V63.6295C28.0547 63.6295 27.8398 63.4145 27.8398 63.1495V54.834L28.7998 55.3773V63.1495C28.7998 63.4145 28.585 63.6295 28.3198 63.6295" fill="#00004D"/>
<path fill-rule="evenodd" clip-rule="evenodd" d="M35.6797 60.2695V60.2695C35.4146 60.2695 35.1997 60.0545 35.1997 59.7895V55.3868L36.1597 54.834V59.7895C36.1597 60.0545 35.9448 60.2695 35.6797 60.2695" fill="#00004D"/>
<path d="M23.52 46.3301L24.8 47.6101" stroke="#00004D" stroke-linecap="round" stroke-linejoin="round"/>
</g>
</svg>
