<svg width="64" height="64" viewBox="0 0 64 64" fill="none" xmlns="http://www.w3.org/2000/svg">
<rect width="64" height="64" fill="white"/>
<rect x="3.2002" y="3.2002" width="57.6" height="57.6" fill="#80C43B"/>
<mask id="mask0_208_2040" style="mask-type:alpha" maskUnits="userSpaceOnUse" x="3" y="3" width="58" height="58">
<rect x="3.2002" y="3.2002" width="57.6" height="57.6" fill="white"/>
</mask>
<g mask="url(#mask0_208_2040)">
<path fill-rule="evenodd" clip-rule="evenodd" d="M52.954 54.117C51.2561 51.6609 48.7529 49.8756 45.8777 49.0701L39.1997 47.1994V42.3996C42.0228 40.2789 43.8767 36.9418 43.9906 33.1669C44.3852 33.3409 44.8207 33.4394 45.2799 33.4394C47.0471 33.4394 48.4799 32.0068 48.4799 30.2394C48.4799 28.4721 47.0471 27.0394 45.2799 27.0394C44.8244 27.0394 44.3921 27.1359 43.9999 27.3074V26.3994C43.9999 19.7719 38.6273 14.3994 31.9999 14.3994H31.9997C25.3724 14.3994 19.9999 19.7719 19.9999 26.3994V27.3074C19.6076 27.1359 19.1753 27.0394 18.7199 27.0394C16.9525 27.0394 15.5199 28.4721 15.5199 30.2394C15.5199 32.0068 16.9525 33.4394 18.7199 33.4394C19.1789 33.4394 19.6145 33.341 20.0092 33.1669C20.1229 36.9418 21.9769 40.2789 24.7997 42.3996V47.1994L18.122 49.0701C15.2468 49.8756 12.7436 51.6609 11.0457 54.117L6.3999 60.8378V65.5994H57.5999V60.8378L52.954 54.117Z" fill="#B5683C"/>
<path fill-rule="evenodd" clip-rule="evenodd" d="M31.9997 44.7993C30.52 44.7993 29.1037 44.5298 27.7949 44.0401C29.6564 45.2292 31.8669 45.9193 34.2397 45.9193C36.0093 45.9193 37.6876 45.5332 39.1997 44.8457V42.3994C37.1941 43.906 34.7013 44.7993 31.9997 44.7993Z" fill="#A3420B"/>
<path d="M20.4171 30.7064C20.4579 30.5577 20.4798 30.4011 20.4798 30.2395C20.4798 29.2675 19.6918 28.4795 18.7198 28.4795C18.4767 28.4795 18.2452 28.5288 18.0347 28.6177" stroke="#00004D" stroke-width="2" stroke-linecap="round" stroke-linejoin="round"/>
<path d="M43.5826 30.7064C43.5418 30.5577 43.52 30.4011 43.52 30.2395C43.52 29.2675 44.308 28.4795 45.28 28.4795C45.5229 28.4795 45.7544 28.5288 45.9651 28.6177" stroke="#00004D" stroke-width="2" stroke-linecap="round" stroke-linejoin="round"/>
<path fill-rule="evenodd" clip-rule="evenodd" d="M36 37.4414C36 39.6507 34.2091 41.4414 32 41.4414C29.7909 41.4414 28 39.6507 28 37.4414H36Z" fill="#AE1328"/>
<path fill-rule="evenodd" clip-rule="evenodd" d="M34.2384 40.7572C33.6612 40.1917 32.8716 39.8418 31.9998 39.8418C31.128 39.8418 30.3384 40.1917 29.7612 40.7572C30.4001 41.1895 31.1704 41.4418 31.9998 41.4418C32.8291 41.4418 33.5996 41.1895 34.2384 40.7572" fill="#FB344F"/>
<path fill-rule="evenodd" clip-rule="evenodd" d="M34.3998 38.7214H29.5998C29.1579 38.7214 28.7998 38.3633 28.7998 37.9214V37.4414H35.1998V37.9214C35.1998 38.3633 34.8417 38.7214 34.3998 38.7214" fill="white"/>
<path d="M38.6935 30.2393C38.4466 30.8044 37.8828 31.1993 37.2266 31.1993C36.5705 31.1993 36.0066 30.8044 35.7598 30.2393" stroke="#00004D" stroke-linecap="round" stroke-linejoin="round"/>
<path d="M28.134 30.2393C27.8871 30.8044 27.3232 31.1993 26.6671 31.1993C26.0109 31.1993 25.4471 30.8044 25.2002 30.2393" stroke="#00004D" stroke-linecap="round" stroke-linejoin="round"/>
<path d="M31.9754 29.4395L33.5372 33.4555C33.8636 34.2947 33.2446 35.1995 32.3442 35.1995H31.3354" stroke="#00004D" stroke-linecap="round" stroke-linejoin="round"/>
<path fill-rule="evenodd" clip-rule="evenodd" d="M57.5999 60.8386L52.954 54.1178C51.2562 51.6618 48.753 49.8764 45.8777 49.0709L39.1999 47.2002C39.1999 51.1767 35.9764 54.4002 31.9999 54.4002V54.4002C28.0234 54.4002 24.7999 51.1767 24.7999 47.2002L18.122 49.0709C15.2468 49.8764 12.7436 51.6618 11.0457 54.1178L6.3999 60.8386V65.6002H57.5999V60.8386Z" fill="#2384F5"/>
<path fill-rule="evenodd" clip-rule="evenodd" d="M44.7423 24.7671H19.2573L22.4573 17.2793H41.5423L44.7423 24.7671Z" fill="#000066"/>
<path fill-rule="evenodd" clip-rule="evenodd" d="M43.2 33.5998C43.2 39.7852 38.1856 44.7998 32 44.7998C25.8144 44.7998 20.8 39.7852 20.8 33.5998V28.7996C20.8 22.6142 25.8144 17.5998 32 17.5998C38.1856 17.5998 43.2 22.6142 43.2 28.7996V33.5998ZM48.48 30.2398C48.48 22.9874 42.7097 13.7598 32 13.7598C21.2902 13.7598 15.52 22.9874 15.52 30.2398C15.52 46.915 13.187 51.7279 13.187 51.7279L16.5587 53.9711C21.9077 57.5302 28.6329 57.553 33.8907 54.501L38.0145 60.2434L50.8361 51.7481C50.8361 51.7481 48.48 48.3924 48.48 30.2398V30.2398Z" fill="#FFCA00"/>
<path d="M41.0511 45.7438C38.7348 48.0603 35.5348 49.4929 32.0002 49.4929C24.9309 49.4929 19.2002 43.7621 19.2002 36.6929V30.6662C19.2002 23.5969 24.9309 17.8662 32.0002 17.8662" stroke="#00004D" stroke-linecap="round" stroke-linejoin="round"/>
<path d="M33.8906 54.5015C35.6585 53.4752 37.2605 52.1013 38.5882 50.3975" stroke="#00004D" stroke-linecap="round" stroke-linejoin="round"/>
</g>
</svg>
