<svg width="65" height="65" viewBox="0 0 65 65" fill="none" xmlns="http://www.w3.org/2000/svg">
<rect y="0.410156" width="65" height="64" fill="white"/>
<rect x="3.25" y="3.61035" width="58.5" height="57.6" fill="#9292B3"/>
<mask id="mask0_208_1851" style="mask-type:alpha" maskUnits="userSpaceOnUse" x="3" y="3" width="59" height="59">
<rect x="3.25" y="3.61035" width="58.5" height="57.6" fill="white"/>
</mask>
<g mask="url(#mask0_208_1851)">
<path fill-rule="evenodd" clip-rule="evenodd" d="M53.7815 54.5281C52.057 52.072 49.5147 50.2867 46.5946 49.4813L39.8123 47.6105V42.8107C42.6795 40.6901 44.5624 37.3529 44.6781 33.5781C45.0788 33.752 45.5211 33.8505 45.9875 33.8505C47.7823 33.8505 49.2375 32.4179 49.2375 30.6505C49.2375 28.8832 47.7823 27.4505 45.9875 27.4505C45.5249 27.4505 45.0858 27.547 44.6875 27.7185V26.8105C44.6875 20.183 39.2309 14.8105 32.5 14.8105H32.4998C25.7689 14.8105 20.3125 20.183 20.3125 26.8105V27.7185C19.914 27.547 19.475 27.4505 19.0125 27.4505C17.2175 27.4505 15.7625 28.8832 15.7625 30.6505C15.7625 32.4179 17.2175 33.8505 19.0125 33.8505C19.4787 33.8505 19.921 33.7521 20.3219 33.5781C20.4375 37.3529 22.3203 40.6901 25.1873 42.8107L25.1873 47.6105L18.4052 49.4813C15.4851 50.2867 12.9428 52.072 11.2183 54.5281L6.5 61.2489V66.0105H58.5V61.2489L53.7815 54.5281Z" fill="#F5CDD3"/>
<path fill-rule="evenodd" clip-rule="evenodd" d="M32.5 45.2104C30.9972 45.2104 29.5587 44.9409 28.2295 44.4512C30.12 45.6403 32.3651 46.3304 34.775 46.3304C36.5722 46.3304 38.2767 45.9443 39.8125 45.2568V42.8105C37.7756 44.3171 35.2438 45.2104 32.5 45.2104Z" fill="#F48C9D"/>
<path d="M20.7365 31.1175C20.778 30.9689 20.8002 30.8122 20.8002 30.6506C20.8002 29.6786 19.9999 28.8906 19.0127 28.8906C18.7659 28.8906 18.5307 28.9399 18.3169 29.0289" stroke="#00004D" stroke-linecap="round" stroke-linejoin="round"/>
<path d="M44.2637 31.1175C44.2223 30.9689 44.2002 30.8122 44.2002 30.6506C44.2002 29.6786 45.0005 28.8906 45.9877 28.8906C46.2344 28.8906 46.4695 28.9399 46.6835 29.0289" stroke="#00004D" stroke-linecap="round" stroke-linejoin="round"/>
<path fill-rule="evenodd" clip-rule="evenodd" d="M28.4375 41.8516C28.4375 39.6424 30.2564 37.8516 32.5 37.8516C34.7436 37.8516 36.5625 39.6424 36.5625 41.8516H28.4375Z" fill="#AE1328"/>
<path fill-rule="evenodd" clip-rule="evenodd" d="M32.5001 37.8516C31.3236 37.8516 30.2644 38.3447 29.5225 39.1316H35.4778C34.7358 38.3447 33.6766 37.8516 32.5001 37.8516" fill="white"/>
<path fill-rule="evenodd" clip-rule="evenodd" d="M32.5002 40.252C31.298 40.252 30.2507 40.8964 29.6885 41.852H35.312C34.7497 40.8964 33.7024 40.252 32.5002 40.252" fill="#FB344F"/>
<path fill-rule="evenodd" clip-rule="evenodd" d="M39.1625 31.1296C39.1625 31.8365 38.5804 32.4096 37.8625 32.4096C37.1446 32.4096 36.5625 31.8365 36.5625 31.1296C36.5625 30.4227 37.1446 29.8496 37.8625 29.8496C38.5804 29.8496 39.1625 30.4227 39.1625 31.1296" fill="#00004D"/>
<path fill-rule="evenodd" clip-rule="evenodd" d="M28.4374 31.1296C28.4374 31.8365 27.8553 32.4096 27.1374 32.4096C26.4195 32.4096 25.8374 31.8365 25.8374 31.1296C25.8374 30.4227 26.4195 29.8496 27.1374 29.8496C27.8553 29.8496 28.4374 30.4227 28.4374 31.1296" fill="#00004D"/>
<path d="M32.4996 29.8496L34.1246 35.2896L31.8496 35.6096" stroke="#00004D" stroke-linecap="round" stroke-linejoin="round"/>
<path fill-rule="evenodd" clip-rule="evenodd" d="M43.875 28.2219C44.3263 27.841 44.8848 27.5819 45.5 27.4906V26.8107C45.5 24.3554 44.7967 22.0623 43.5792 20.1139C42.451 18.3083 40.8796 16.8018 39.0154 15.7362C37.0994 14.6408 34.8751 14.0107 32.5 14.0107C30.1251 14.0107 27.9006 14.6408 25.9846 15.7362C24.1204 16.8018 22.549 18.3083 21.4207 20.1139C20.2035 22.0623 19.5 24.3554 19.5 26.8107V27.4906C20.1152 27.5819 20.6737 27.841 21.125 28.2219V26.8107C21.125 22.5011 23.5986 18.7623 27.2226 16.8895C28.6424 18.0861 30.4847 18.8107 32.5 18.8107C34.5153 18.8107 36.3576 18.0861 37.7773 16.8896C41.4014 18.7624 43.875 22.5011 43.875 26.8107V28.2219Z" fill="#F0F0F4"/>
<path fill-rule="evenodd" clip-rule="evenodd" d="M58.5 61.2487L53.7816 54.528C52.0572 52.072 49.5149 50.2865 46.5946 49.4811L39.8125 47.6104C39.8125 51.5867 36.5386 54.8104 32.5 54.8104C28.4614 54.8104 25.1875 51.5867 25.1875 47.6104L18.4054 49.4811C15.4851 50.2865 12.9428 52.072 11.2183 54.528L6.5 61.2487V66.0103H58.5V61.2487Z" fill="#9BC5FF"/>
<path d="M41.2387 51.7125C39.644 54.8758 36.3299 57.0499 32.5001 57.0499C27.3966 57.0499 23.209 53.1893 22.7852 48.2725" stroke="#00004D" stroke-linecap="round" stroke-linejoin="round"/>
<path fill-rule="evenodd" clip-rule="evenodd" d="M41.9252 31.6097C41.9252 33.642 40.2518 35.2897 38.1877 35.2897C36.1236 35.2897 34.4502 33.642 34.4502 31.6097C34.4502 29.5772 36.1236 27.9297 38.1877 27.9297C40.2518 27.9297 41.9252 29.5772 41.9252 31.6097Z" stroke="#00004D" stroke-width="2" stroke-linecap="round" stroke-linejoin="round"/>
<path fill-rule="evenodd" clip-rule="evenodd" d="M23.0752 31.6097C23.0752 33.642 24.7485 35.2897 26.8127 35.2897C28.8769 35.2897 30.5502 33.642 30.5502 31.6097C30.5502 29.5772 28.8769 27.9297 26.8127 27.9297C24.7485 27.9297 23.0752 29.5772 23.0752 31.6097Z" stroke="#00004D" stroke-width="2" stroke-linecap="round" stroke-linejoin="round"/>
<path d="M30.3184 30.3324C30.597 29.4057 31.4684 28.7295 32.4999 28.7295C33.5316 28.7295 34.4028 29.4057 34.6816 30.3324" stroke="#00004D" stroke-width="2" stroke-linecap="round" stroke-linejoin="round"/>
</g>
</svg>
