<svg width="24" height="26" viewBox="0 0 24 26" fill="none" xmlns="http://www.w3.org/2000/svg">
<path d="M16.7502 4.10561V2.48711C16.7502 2.06173 16.4102 1.70898 16.0002 1.70898C15.5902 1.70898 15.2502 2.06173 15.2502 2.48711V4.04336H8.75022V2.48711C8.75022 2.06173 8.41022 1.70898 8.00022 1.70898C7.59022 1.70898 7.25022 2.06173 7.25022 2.48711V4.10561C4.55022 4.36498 3.24023 6.03536 3.04023 8.51498C3.02023 8.81586 3.26023 9.06486 3.54023 9.06486H20.4602C20.7502 9.06486 20.9902 8.80548 20.9602 8.51498C20.7602 6.03536 19.4502 4.36498 16.7502 4.10561Z" fill="white"/>
<path opacity="0.4" d="M20 10.6211C20.55 10.6211 21 11.088 21 11.6586V18.0496C21 21.1621 19.5 23.2371 16 23.2371H8C4.5 23.2371 3 21.1621 3 18.0496V11.6586C3 11.088 3.45 10.6211 4 10.6211H20Z" fill="white"/>
<path d="M8.5 15.9741C8.37 15.9741 8.24 15.943 8.12 15.8911C8 15.8393 7.89001 15.7666 7.79001 15.6732C7.70001 15.5695 7.62999 15.4554 7.57999 15.3309C7.52999 15.2064 7.5 15.0715 7.5 14.9366C7.5 14.8018 7.52999 14.6669 7.57999 14.5424C7.62999 14.4179 7.70001 14.3038 7.79001 14.2C7.89001 14.1066 8 14.034 8.12 13.9821C8.36 13.8784 8.64 13.8784 8.88 13.9821C9 14.034 9.10999 14.1066 9.20999 14.2C9.29999 14.3038 9.37001 14.4179 9.42001 14.5424C9.47001 14.6669 9.5 14.8018 9.5 14.9366C9.5 15.0715 9.47001 15.2064 9.42001 15.3309C9.37001 15.4554 9.29999 15.5695 9.20999 15.6732C9.10999 15.7666 9 15.8393 8.88 15.8911C8.76 15.943 8.63 15.9741 8.5 15.9741Z" fill="white"/>
<path d="M12 15.9751C11.87 15.9751 11.74 15.944 11.62 15.8921C11.5 15.8402 11.39 15.7676 11.29 15.6742C11.11 15.4771 11 15.2073 11 14.9376C11 14.6678 11.11 14.3981 11.29 14.201C11.39 14.1076 11.5 14.0349 11.62 13.9831C11.86 13.8689 12.14 13.8689 12.38 13.9831C12.5 14.0349 12.61 14.1076 12.71 14.201C12.89 14.3981 13 14.6678 13 14.9376C13 15.2073 12.89 15.4771 12.71 15.6742C12.61 15.7676 12.5 15.8402 12.38 15.8921C12.26 15.944 12.13 15.9751 12 15.9751Z" fill="white"/>
<path d="M8.5 19.606C8.37 19.606 8.24 19.5749 8.12 19.523C8 19.4711 7.89001 19.3985 7.79001 19.3051C7.61001 19.108 7.5 18.8382 7.5 18.5685C7.5 18.2987 7.61001 18.029 7.79001 17.8318C7.89001 17.7385 8 17.6658 8.12 17.6139C8.36 17.5102 8.64 17.5102 8.88 17.6139C9 17.6658 9.10999 17.7385 9.20999 17.8318C9.38999 18.029 9.5 18.2987 9.5 18.5685C9.5 18.8382 9.38999 19.108 9.20999 19.3051C9.10999 19.3985 9 19.4711 8.88 19.523C8.76 19.5749 8.63 19.606 8.5 19.606Z" fill="white"/>
</svg>
