<svg width="24" height="26" viewBox="0 0 24 26" fill="none" xmlns="http://www.w3.org/2000/svg">
<path d="M16.7502 4.631V3.0125C16.7502 2.58712 16.4102 2.23438 16.0002 2.23438C15.5902 2.23438 15.2502 2.58712 15.2502 3.0125V4.56875H8.75024V3.0125C8.75024 2.58712 8.41024 2.23438 8.00024 2.23438C7.59024 2.23438 7.25024 2.58712 7.25024 3.0125V4.631C4.55024 4.89037 3.24023 6.56075 3.04023 9.04037C3.02023 9.34125 3.26023 9.59024 3.54023 9.59024H20.4602C20.7502 9.59024 20.9902 9.33087 20.9602 9.04037C20.7602 6.56075 19.4502 4.89037 16.7502 4.631Z" fill="white"/>
<path opacity="0.4" d="M21 12.1836V13.9889C21 14.6217 20.46 15.1094 19.86 15.0056C19.58 14.9641 19.29 14.933 19 14.933C15.97 14.933 13.5 17.4956 13.5 20.6392C13.5 21.1165 13.68 21.7805 13.87 22.3823C14.09 23.0566 13.61 23.7517 12.92 23.7517H8C4.5 23.7517 3 21.6767 3 18.5642V12.1732C3 11.6026 3.45 11.1357 4 11.1357H20C20.55 11.1461 21 11.613 21 12.1836Z" fill="white"/>
<path d="M8.5 16.4998C8.24 16.4998 7.98 16.3856 7.79 16.1989C7.61 16.0017 7.5 15.732 7.5 15.4623C7.5 15.1925 7.61 14.9228 7.79 14.7256C8.02 14.487 8.37 14.3729 8.7 14.4455C8.76 14.4559 8.82 14.4766 8.88 14.5077C8.94 14.5285 9 14.5596 9.06 14.6011C9.11 14.6426 9.16 14.6841 9.21 14.7256C9.39 14.9228 9.5 15.1925 9.5 15.4623C9.5 15.732 9.39 16.0017 9.21 16.1989C9.16 16.2404 9.11 16.2819 9.06 16.3234C9 16.3649 8.94 16.396 8.88 16.4168C8.82 16.4479 8.76 16.4686 8.7 16.479C8.63 16.4894 8.56 16.4998 8.5 16.4998Z" fill="white"/>
<path d="M12 16.4995C11.74 16.4995 11.48 16.3854 11.29 16.1986C11.11 16.0015 11 15.7318 11 15.462C11 15.1923 11.11 14.9225 11.29 14.7254C11.67 14.3415 12.34 14.3415 12.71 14.7254C12.89 14.9225 13 15.1923 13 15.462C13 15.7318 12.89 16.0015 12.71 16.1986C12.52 16.3854 12.26 16.4995 12 16.4995Z" fill="white"/>
<path d="M8.5 20.1315C8.24 20.1315 7.98 20.0173 7.79 19.8306C7.61 19.6335 7.5 19.3637 7.5 19.094C7.5 18.8242 7.61 18.5545 7.79 18.3574C7.89 18.264 7.99 18.1913 8.12 18.1395C8.49 17.9735 8.93 18.0669 9.21 18.3574C9.39 18.5545 9.5 18.8242 9.5 19.094C9.5 19.3637 9.39 19.6335 9.21 19.8306C9.02 20.0173 8.76 20.1315 8.5 20.1315Z" fill="white"/>
<path d="M21.83 17.7139C20.27 16.0954 17.73 16.0954 16.17 17.7139C14.61 19.3324 14.61 21.9676 16.17 23.5861C17.73 25.2046 20.27 25.2046 21.83 23.5861C23.39 21.9676 23.39 19.3324 21.83 17.7139ZM21.07 21.231C20.94 21.3762 20.75 21.4592 20.54 21.4592H19.8V22.2685C19.8 22.4864 19.72 22.6731 19.58 22.8184C19.44 22.9636 19.26 23.0466 19.05 23.0466C18.64 23.0466 18.3 22.6939 18.3 22.2685V21.4592H17.55C17.14 21.4592 16.8 21.1169 16.8 20.6811C16.8 20.2557 17.14 19.903 17.55 19.903H18.3V19.1664C18.3 18.741 18.63 18.3882 19.05 18.3882C19.46 18.3882 19.8 18.741 19.8 19.1664V19.903H20.54C20.96 19.903 21.29 20.2557 21.29 20.6811C21.29 20.899 21.21 21.0961 21.07 21.231Z" fill="white"/>
</svg>
