<svg width="24" height="24" viewBox="0 0 24 24" fill="none" xmlns="http://www.w3.org/2000/svg">
<g filter="url(#filter0_i_106_609)">
<path opacity="0.4" d="M16.1905 2H7.81049C4.17049 2 2.00049 4.17 2.00049 7.81V16.18C2.00049 19.83 4.17049 22 7.81049 22H16.1805C19.8205 22 21.9905 19.83 21.9905 16.19V7.81C22.0005 4.17 19.8305 2 16.1905 2Z" fill="white"/>
<path d="M13.0599 11.9994L15.3599 9.69937C15.6499 9.40937 15.6499 8.92937 15.3599 8.63938C15.0699 8.34938 14.5899 8.34938 14.2999 8.63938L11.9999 10.9394L9.69986 8.63938C9.40986 8.34938 8.92986 8.34938 8.63986 8.63938C8.34986 8.92937 8.34986 9.40937 8.63986 9.69937L10.9399 11.9994L8.63986 14.2994C8.34986 14.5894 8.34986 15.0694 8.63986 15.3594C8.78986 15.5094 8.97986 15.5794 9.16986 15.5794C9.35986 15.5794 9.54986 15.5094 9.69986 15.3594L11.9999 13.0594L14.2999 15.3594C14.4499 15.5094 14.6399 15.5794 14.8299 15.5794C15.0199 15.5794 15.2099 15.5094 15.3599 15.3594C15.6499 15.0694 15.6499 14.5894 15.3599 14.2994L13.0599 11.9994Z" fill="white"/>
</g>
<defs>
<filter id="filter0_i_106_609" x="2.00049" y="2" width="19.9902" height="24" filterUnits="userSpaceOnUse" color-interpolation-filters="sRGB">
<feFlood flood-opacity="0" result="BackgroundImageFix"/>
<feBlend mode="normal" in="SourceGraphic" in2="BackgroundImageFix" result="shape"/>
<feColorMatrix in="SourceAlpha" type="matrix" values="0 0 0 0 0 0 0 0 0 0 0 0 0 0 0 0 0 0 127 0" result="hardAlpha"/>
<feOffset dy="4"/>
<feGaussianBlur stdDeviation="2"/>
<feComposite in2="hardAlpha" operator="arithmetic" k2="-1" k3="1"/>
<feColorMatrix type="matrix" values="0 0 0 0 0 0 0 0 0 0 0 0 0 0 0 0 0 0 0.25 0"/>
<feBlend mode="normal" in2="shape" result="effect1_innerShadow_106_609"/>
</filter>
</defs>
</svg>
