<svg width="24" height="24" viewBox="0 0 24 24" fill="none" xmlns="http://www.w3.org/2000/svg">
<path opacity="0.4" d="M16.1905 2.00049H7.81049C4.17049 2.00049 2.00049 4.17049 2.00049 7.81049V16.1805C2.00049 19.8305 4.17049 22.0005 7.81049 22.0005H16.1805C19.8205 22.0005 21.9905 19.8305 21.9905 16.1905V7.81049C22.0005 4.17049 19.8305 2.00049 16.1905 2.00049Z" fill="white"/>
<path d="M13.0599 11.9999L15.3599 9.69986C15.6499 9.40986 15.6499 8.92986 15.3599 8.63986C15.0699 8.34986 14.5899 8.34986 14.2999 8.63986L11.9999 10.9399L9.69986 8.63986C9.40986 8.34986 8.92986 8.34986 8.63986 8.63986C8.34986 8.92986 8.34986 9.40986 8.63986 9.69986L10.9399 11.9999L8.63986 14.2999C8.34986 14.5899 8.34986 15.0699 8.63986 15.3599C8.78986 15.5099 8.97986 15.5799 9.16986 15.5799C9.35986 15.5799 9.54986 15.5099 9.69986 15.3599L11.9999 13.0599L14.2999 15.3599C14.4499 15.5099 14.6399 15.5799 14.8299 15.5799C15.0199 15.5799 15.2099 15.5099 15.3599 15.3599C15.6499 15.0699 15.6499 14.5899 15.3599 14.2999L13.0599 11.9999Z" fill="white"/>
</svg>
