<svg width="24" height="24" viewBox="0 0 24 24" fill="none" xmlns="http://www.w3.org/2000/svg">
<path opacity="0.4" d="M15.4799 3H7.51988C4.06988 3 1.99988 5.06 1.99988 8.52V16.47C1.99988 19.94 4.06988 22 7.51988 22H15.4699C18.9299 22 20.9899 19.94 20.9899 16.48V8.52C20.9999 5.06 18.9299 3 15.4799 3Z" fill="white"/>
<path d="M21.0201 2.9793C19.2301 1.1793 17.4801 1.1393 15.6401 2.9793L14.5101 4.0993C14.4101 4.1993 14.3801 4.3393 14.4201 4.4693C15.1201 6.9193 17.0801 8.8793 19.5301 9.5793C19.5601 9.5893 19.6101 9.5893 19.6401 9.5893C19.7401 9.5893 19.8401 9.5493 19.9101 9.4793L21.0201 8.3593C21.9301 7.4493 22.3801 6.5793 22.3801 5.6893C22.3801 4.7893 21.9301 3.8993 21.0201 2.9793Z" fill="white"/>
<path d="M17.8601 10.4198C17.5901 10.2898 17.3301 10.1598 17.0901 10.0098C16.8901 9.88984 16.6901 9.75984 16.5001 9.61984C16.3401 9.51984 16.1601 9.36984 15.9801 9.21984C15.9601 9.20984 15.9001 9.15984 15.8201 9.07984C15.5101 8.82984 15.1801 8.48984 14.8701 8.11984C14.8501 8.09984 14.7901 8.03984 14.7401 7.94984C14.6401 7.83984 14.4901 7.64984 14.3601 7.43984C14.2501 7.29984 14.1201 7.09984 14.0001 6.88984C13.8501 6.63984 13.7201 6.38984 13.6001 6.12984C13.4701 5.84984 13.3701 5.58984 13.2801 5.33984L7.9001 10.7198C7.5501 11.0698 7.2101 11.7298 7.1401 12.2198L6.7101 15.1998C6.6201 15.8298 6.7901 16.4198 7.1801 16.8098C7.5101 17.1398 7.9601 17.3098 8.4601 17.3098C8.5701 17.3098 8.6801 17.2998 8.7901 17.2898L11.7601 16.8698C12.2501 16.7998 12.9101 16.4698 13.2601 16.1098L18.6401 10.7298C18.3901 10.6498 18.1401 10.5398 17.8601 10.4198Z" fill="white"/>
</svg>
