<svg width="34" height="34" viewBox="0 0 34 34" fill="none" xmlns="http://www.w3.org/2000/svg">
<path opacity="0.4" d="M29.2116 11.9712C27.7241 5.42616 22.0149 2.47949 16.9999 2.47949C16.9999 2.47949 16.9999 2.47949 16.9857 2.47949C11.9849 2.47949 6.26156 5.41199 4.77406 11.957C3.11656 19.267 7.59323 25.4578 11.6449 29.3537C13.1466 30.7987 15.0732 31.5212 16.9999 31.5212C18.9266 31.5212 20.8532 30.7987 22.3407 29.3537C26.3924 25.4578 30.8691 19.2812 29.2116 11.9712Z" fill="#003566"/>
<path d="M17.0001 19.0686C19.4647 19.0686 21.4626 17.0706 21.4626 14.6061C21.4626 12.1415 19.4647 10.1436 17.0001 10.1436C14.5355 10.1436 12.5376 12.1415 12.5376 14.6061C12.5376 17.0706 14.5355 19.0686 17.0001 19.0686Z" fill="#003566"/>
</svg>
