<svg width="75" height="50" viewBox="0 0 75 50" fill="none" xmlns="http://www.w3.org/2000/svg">
<path d="M66.5525 27.771C66.5525 36.9127 59.1417 44.3235 50 44.3235C40.8583 44.3235 33.4475 36.9127 33.4475 27.771C33.4475 18.6293 40.8583 11.2185 50 11.2185C59.1417 11.2185 66.5525 18.6293 66.5525 27.771Z" fill="#003566" stroke="#FFC300" stroke-width="3.02"/>
<path d="M50 28.6457C49.1458 28.6457 48.4375 27.9373 48.4375 27.0832V16.6665C48.4375 15.8123 49.1458 15.104 50 15.104C50.8542 15.104 51.5625 15.8123 51.5625 16.6665V27.0832C51.5625 27.9373 50.8542 28.6457 50 28.6457Z" fill="#FFC300"/>
<path d="M56.0207 7.18734H43.979C43.1457 7.18734 42.479 6.52067 42.479 5.68734C42.479 4.854 43.1457 4.1665 43.979 4.1665H56.0207C56.854 4.1665 57.5207 4.83317 57.5207 5.6665C57.5207 6.49984 56.854 7.18734 56.0207 7.18734Z" fill="#FFC300"/>
<line x1="28.49" y1="36.51" x2="6.51" y2="36.51" stroke="#FFC300" stroke-width="3.02" stroke-linecap="round"/>
<line x1="23.49" y1="26.51" x2="1.51" y2="26.51" stroke="#FFC300" stroke-width="3.02" stroke-linecap="round"/>
<line x1="28.49" y1="16.51" x2="6.51" y2="16.51" stroke="#FFC300" stroke-width="3.02" stroke-linecap="round"/>
</svg>
