<svg width="38" height="26" viewBox="0 0 38 26" fill="none" xmlns="http://www.w3.org/2000/svg">
<path d="M32.975 14.0706C32.975 18.291 29.5537 21.7123 25.3333 21.7123C21.1129 21.7123 17.6916 18.291 17.6916 14.0706C17.6916 9.85024 21.1129 6.42895 25.3333 6.42895C29.5537 6.42895 32.975 9.85024 32.975 14.0706Z" fill="#003566" stroke="#FFC300" stroke-width="3.02"/>
<path d="M25.3333 14.5135C24.9005 14.5135 24.5416 14.1546 24.5416 13.7218V8.44401C24.5416 8.01123 24.9005 7.65234 25.3333 7.65234C25.7661 7.65234 26.125 8.01123 26.125 8.44401V13.7218C26.125 14.1546 25.7661 14.5135 25.3333 14.5135Z" fill="#FFC300"/>
<path d="M28.3838 3.64188H22.2827C21.8605 3.64188 21.5227 3.30411 21.5227 2.88188C21.5227 2.45966 21.8605 2.11133 22.2827 2.11133H28.3838C28.806 2.11133 29.1438 2.44911 29.1438 2.87133C29.1438 3.29355 28.806 3.64188 28.3838 3.64188Z" fill="#FFC300"/>
<line x1="13.69" y1="19.2434" x2="4.04328" y2="19.2434" stroke="#FFC300" stroke-width="3.02" stroke-linecap="round"/>
<line x1="11.1566" y1="14.176" x2="1.50996" y2="14.176" stroke="#FFC300" stroke-width="3.02" stroke-linecap="round"/>
<line x1="13.69" y1="9.11059" x2="4.04328" y2="9.11059" stroke="#FFC300" stroke-width="3.02" stroke-linecap="round"/>
</svg>
