<svg width="58" height="58" viewBox="0 0 58 58" fill="none" xmlns="http://www.w3.org/2000/svg">
<path d="M40.2375 48.8168V49.5176C36.6608 51.8135 32.3833 53.1668 27.7916 53.1668C23.1275 53.1668 18.7775 51.7651 15.1525 49.3726V48.8168C15.1525 43.186 20.7833 38.5942 27.695 38.5942C34.6308 38.5942 40.2375 43.186 40.2375 48.8168Z" fill="#003566"/>
<path opacity="0.4" d="M50.75 30.2083C50.75 38.3042 46.5692 45.4091 40.2375 49.5175V48.8167C40.2375 43.1859 34.6309 38.5941 27.695 38.5941C20.7834 38.5941 15.1525 43.1859 15.1525 48.8167V49.3725C8.94171 45.2641 4.83337 38.2317 4.83337 30.2083C4.83337 17.5208 15.1042 7.25 27.7917 7.25C30.9575 7.25 33.9784 7.87831 36.7334 9.03831C36.4192 10.005 36.25 11.02 36.25 12.0833C36.25 13.8958 36.7575 15.6117 37.6517 17.0617C38.135 17.8833 38.7634 18.6324 39.4884 19.2608C41.18 20.8074 43.4275 21.75 45.9167 21.75C46.98 21.75 47.995 21.5808 48.9375 21.2424C50.0975 23.9974 50.75 27.0425 50.75 30.2083Z" fill="#003566"/>
<path d="M53.0942 5.63071C51.3542 3.64905 48.7683 2.4165 45.9167 2.4165C43.21 2.4165 40.745 3.52822 38.9808 5.34072C37.9658 6.37989 37.1925 7.63648 36.7333 9.03815C36.4192 10.0048 36.25 11.0198 36.25 12.0832C36.25 13.8957 36.7575 15.6115 37.6517 17.0615C38.135 17.8832 38.7633 18.6323 39.4883 19.2606C41.18 20.8073 43.4275 21.7498 45.9167 21.7498C46.98 21.7498 47.995 21.5806 48.9375 21.2423C51.1608 20.5415 53.0217 19.019 54.1817 17.0615C54.6892 16.2398 55.0758 15.2973 55.2933 14.3307C55.4867 13.6057 55.5833 12.8565 55.5833 12.0832C55.5833 9.61817 54.6408 7.34655 53.0942 5.63071ZM49.5175 13.8473H47.7292V15.7324C47.7292 16.7232 46.9075 17.5449 45.9167 17.5449C44.9258 17.5449 44.1042 16.7232 44.1042 15.7324V13.8473H42.3158C41.325 13.8473 40.5033 13.0256 40.5033 12.0348C40.5033 11.044 41.325 10.2223 42.3158 10.2223H44.1042V8.50655C44.1042 7.51572 44.9258 6.69405 45.9167 6.69405C46.9075 6.69405 47.7292 7.51572 47.7292 8.50655V10.2223H49.5175C50.5083 10.2223 51.33 11.044 51.33 12.0348C51.33 13.0256 50.5325 13.8473 49.5175 13.8473Z" fill="#003566"/>
<path d="M27.695 35.5973C31.4455 35.5973 34.4858 32.5569 34.4858 28.8065C34.4858 25.056 31.4455 22.0156 27.695 22.0156C23.9445 22.0156 20.9042 25.056 20.9042 28.8065C20.9042 32.5569 23.9445 35.5973 27.695 35.5973Z" fill="#003566"/>
</svg>
