<svg width="23" height="23" viewBox="0 0 23 23" fill="none" xmlns="http://www.w3.org/2000/svg">
<path opacity="0.4" d="M11.0209 20.1248C16.049 20.1248 20.1251 16.0488 20.1251 11.0207C20.1251 5.99258 16.049 1.9165 11.0209 1.9165C5.99282 1.9165 1.91675 5.99258 1.91675 11.0207C1.91675 16.0488 5.99282 20.1248 11.0209 20.1248Z" fill="white"/>
<path d="M20.4125 21.0833C20.24 21.0833 20.0675 21.0162 19.9429 20.8916L18.1604 19.1091C17.9016 18.8504 17.9016 18.4287 18.1604 18.1604C18.4191 17.9016 18.8408 17.9016 19.1091 18.1604L20.8916 19.9429C21.1504 20.2016 21.1504 20.6233 20.8916 20.8916C20.7575 21.0162 20.585 21.0833 20.4125 21.0833Z" fill="white"/>
</svg>
